<svg version="1.1" xmlns="http://www.w3.org/2000/svg" viewBox="0 0 962 460" width="2886" height="1380">
  <!-- svg-source:excalidraw -->
  
  <defs>
    <style class="style-fonts">
      @font-face {
        font-family: "Virgil";
        src: url("https://excalidraw.com/Virgil.woff2");
      }
      @font-face {
        font-family: "Cascadia";
        src: url("https://excalidraw.com/Cascadia.woff2");
      }
    </style>
  </defs>
  <rect x="0" y="0" width="962" height="460" fill="#ffffff"></rect><g stroke-linecap="round" transform="translate(98 21) rotate(0 94.5 51.5)"><path d="M25.75 0 M25.75 0 C57.9 0.94, 86.06 -2.78, 163.25 0 M25.75 0 C74.45 1.98, 121.67 0.8, 163.25 0 M163.25 0 C182.38 -0.25, 188.7 9.77, 189 25.75 M163.25 0 C181.27 -1.06, 191.03 7.92, 189 25.75 M189 25.75 C188.4 44.47, 189.99 60.52, 189 77.25 M189 25.75 C188.88 45.01, 187.9 66.16, 189 77.25 M189 77.25 C188.24 94.28, 180.73 104.47, 163.25 103 M189 77.25 C188.62 93.19, 178.13 104.86, 163.25 103 M163.25 103 C118.96 105.41, 75.11 103.29, 25.75 103 M163.25 103 C133.04 103.35, 104.65 103.63, 25.75 103 M25.75 103 C10.2 104.91, 0.37 95.71, 0 77.25 M25.75 103 C7.9 100.77, -0.93 95.77, 0 77.25 M0 77.25 C1.82 62.18, -1.42 48.43, 0 25.75 M0 77.25 C-1.34 59.26, -0.08 41.27, 0 25.75 M0 25.75 C-0.8 9.84, 9.92 1.06, 25.75 0 M0 25.75 C-2.29 9.31, 9.97 0.93, 25.75 0" stroke="#000000" stroke-width="1" fill="none"></path></g><g transform="translate(140.33999633789062 60.5) rotate(0 52.160003662109375 12)"><text x="52.160003662109375" y="0" font-family="Virgil, Segoe UI Emoji" font-size="20px" fill="#000000" text-anchor="middle" style="white-space: pre;" direction="ltr" dominant-baseline="text-before-edge">Login Page</text></g><g stroke-linecap="round" transform="translate(21 185) rotate(0 148.5 28.5)"><path d="M14.25 0 M14.25 0 C80.57 1.1, 149 1.65, 282.75 0 M14.25 0 C69.78 -0.88, 123.6 -2.06, 282.75 0 M282.75 0 C291.55 -1.63, 296.68 2.77, 297 14.25 M282.75 0 C290.71 1.2, 296.53 7.03, 297 14.25 M297 14.25 C295.98 22.54, 297.4 31.8, 297 42.75 M297 14.25 C297.78 20.95, 297.25 26.76, 297 42.75 M297 42.75 C298.94 53.96, 291.89 57.54, 282.75 57 M297 42.75 C294.84 50.36, 291.47 58.99, 282.75 57 M282.75 57 C191.17 59.93, 100.1 60.18, 14.25 57 M282.75 57 C228.26 56.85, 174.16 57.46, 14.25 57 M14.25 57 C4.69 55.92, 1.81 50.43, 0 42.75 M14.25 57 C5.34 55.88, 0.98 52.05, 0 42.75 M0 42.75 C-1.58 35.91, 1.54 26.05, 0 14.25 M0 42.75 C-0.73 36.11, 0.71 28.22, 0 14.25 M0 14.25 C0.72 4.52, 4.67 0.01, 14.25 0 M0 14.25 C0.73 5.58, 3.3 -0.26, 14.25 0" stroke="#000000" stroke-width="1" fill="none"></path></g><g transform="translate(124.0199966430664 201.5) rotate(0 45.480003356933594 12)"><text x="45.480003356933594" y="0" font-family="Virgil, Segoe UI Emoji" font-size="20px" fill="#000000" text-anchor="middle" style="white-space: pre;" direction="ltr" dominant-baseline="text-before-edge">Username</text></g><g stroke-linecap="round" transform="translate(10 269) rotate(0 156.5 32)"><path d="M16 0 M16 0 C91.99 0.48, 164.68 0.33, 297 0 M16 0 C74.39 2.16, 131.99 1.8, 297 0 M297 0 C307.84 0.75, 312.94 4.26, 313 16 M297 0 C309.74 -2.1, 313.59 4.22, 313 16 M313 16 C311.44 28.31, 311.18 39.53, 313 48 M313 16 C313.96 28.12, 312.56 39.87, 313 48 M313 48 C314.95 57.87, 308.39 63.77, 297 64 M313 48 C312.91 58.68, 308.39 64.83, 297 64 M297 64 C231.82 61.78, 163.96 64.41, 16 64 M297 64 C234.02 63.72, 172.01 63.99, 16 64 M16 64 C5.15 64.59, 0.18 58.1, 0 48 M16 64 C3.49 62.07, -2.11 56.44, 0 48 M0 48 C-1.22 38.87, 1.95 30.97, 0 16 M0 48 C-0.49 35.91, -0.55 23.26, 0 16 M0 16 C-1.21 4.55, 4.69 1.83, 16 0 M0 16 C1.24 5.17, 3.61 2.16, 16 0" stroke="#000000" stroke-width="1" fill="none"></path></g><g transform="translate(120.7400016784668 289) rotate(0 45.7599983215332 12)"><text x="45.7599983215332" y="0" font-family="Virgil, Segoe UI Emoji" font-size="20px" fill="#000000" text-anchor="middle" style="white-space: pre;" direction="ltr" dominant-baseline="text-before-edge">Password</text></g><g stroke-linecap="round" transform="translate(112 377) rotate(0 70 29)"><path d="M14.5 0 M14.5 0 C48.78 -1.03, 80.85 0.06, 125.5 0 M14.5 0 C47.3 -1.51, 78.08 -1.66, 125.5 0 M125.5 0 C135.61 -1.22, 138.7 3.16, 140 14.5 M125.5 0 C135.4 -2.23, 139.07 3.69, 140 14.5 M140 14.5 C139.45 22.82, 141.11 33.54, 140 43.5 M140 14.5 C139.88 23.4, 139.86 31.45, 140 43.5 M140 43.5 C141.9 55.01, 135.39 59.48, 125.5 58 M140 43.5 C138.39 54.78, 137.05 56.75, 125.5 58 M125.5 58 C87.23 58.2, 51.48 59.52, 14.5 58 M125.5 58 C86.82 58.79, 48.1 58.42, 14.5 58 M14.5 58 C5.31 59.06, 0.92 54.36, 0 43.5 M14.5 58 C6.41 57.38, 1.16 54.55, 0 43.5 M0 43.5 C-0.31 38.59, -0.31 29.03, 0 14.5 M0 43.5 C-0.42 32.7, 0.2 23.5, 0 14.5 M0 14.5 C-0.34 5.09, 5.2 -1.14, 14.5 0 M0 14.5 C-1.31 5.38, 6.22 -2.08, 14.5 0" stroke="#000000" stroke-width="1" fill="none"></path></g><g transform="translate(117.58999633789062 382) rotate(0 64.41000366210938 24)"><text x="64.41000366210938" y="0" font-family="Virgil, Segoe UI Emoji" font-size="20px" fill="#000000" text-anchor="middle" style="white-space: pre;" direction="ltr" dominant-baseline="text-before-edge">Login/Submit </text><text x="64.41000366210938" y="24" font-family="Virgil, Segoe UI Emoji" font-size="20px" fill="#000000" text-anchor="middle" style="white-space: pre;" direction="ltr" dominant-baseline="text-before-edge">button</text></g><g stroke-linecap="round" transform="translate(367 10) rotate(0 292.5 220)"><path d="M32 0 M32 0 C190.13 0.19, 346.4 0.77, 553 0 M32 0 C222.7 0.63, 414.04 0.4, 553 0 M553 0 C574.59 0.36, 583.86 9.53, 585 32 M553 0 C574.88 1.39, 582.92 12.65, 585 32 M585 32 C587.55 156.89, 586.28 284.06, 585 408 M585 32 C582.74 165.87, 583.18 299.81, 585 408 M585 408 C586.44 429.36, 574.16 441.6, 553 440 M585 408 C583.11 429.94, 576.22 438.86, 553 440 M553 440 C366.87 440.41, 182.52 440.05, 32 440 M553 440 C415.9 438.63, 278.73 439, 32 440 M32 440 C10.71 440.07, 0.64 430.35, 0 408 M32 440 C10.66 440.53, -2.28 430.14, 0 408 M0 408 C-0.54 283.11, -0.43 157.45, 0 32 M0 408 C1.44 283.66, 1.42 158.24, 0 32 M0 32 C0.23 10.76, 10.93 -1.74, 32 0 M0 32 C0.52 8.87, 10.34 -0.85, 32 0" stroke="#000000" stroke-width="1" fill="none"></path></g><g transform="translate(472.6000061035156 218) rotate(0 186.89999389648438 12)"><text x="186.89999389648438" y="0" font-family="Virgil, Segoe UI Emoji" font-size="20px" fill="#000000" text-anchor="middle" style="white-space: pre;" direction="ltr" dominant-baseline="text-before-edge">pretty picture or graphic or something</text></g></svg>