<svg version="1.1" xmlns="http://www.w3.org/2000/svg" viewBox="0 0 1325 685" width="3975" height="2055">
  <!-- svg-source:excalidraw -->
  
  <defs>
    <style class="style-fonts">
      @font-face {
        font-family: "Virgil";
        src: url("https://excalidraw.com/Virgil.woff2");
      }
      @font-face {
        font-family: "Cascadia";
        src: url("https://excalidraw.com/Cascadia.woff2");
      }
    </style>
  </defs>
  <rect x="0" y="0" width="1325" height="685" fill="#ffffff"></rect><g stroke-linecap="round" transform="translate(444 10) rotate(0 181.5 51.5)"><path d="M25.75 0 M25.75 0 C118.72 1.5, 211.62 1.71, 337.25 0 M25.75 0 C122.1 1.5, 219.21 1.6, 337.25 0 M337.25 0 C354.35 0.96, 364.97 10.28, 363 25.75 M337.25 0 C356.63 -0.68, 363.78 7.36, 363 25.75 M363 25.75 C363.27 35.14, 362.97 47.9, 363 77.25 M363 25.75 C362.27 46.15, 362.59 65.91, 363 77.25 M363 77.25 C362.47 93.3, 356.37 101.38, 337.25 103 M363 77.25 C364.63 93.51, 355.26 102.48, 337.25 103 M337.25 103 C227.14 102.72, 117.39 102.86, 25.75 103 M337.25 103 C244.92 101.21, 152.1 101.55, 25.75 103 M25.75 103 C10.47 103.87, 1.88 95.46, 0 77.25 M25.75 103 C7.3 101.87, 1.82 92.77, 0 77.25 M0 77.25 C-1.48 61.68, -1.74 47.38, 0 25.75 M0 77.25 C0.26 66, 0.86 53.03, 0 25.75 M0 25.75 C0.88 8.28, 9.33 1.51, 25.75 0 M0 25.75 C-0.05 9.1, 9.36 -2.12, 25.75 0" stroke="#000000" stroke-width="1" fill="none"></path></g><g transform="translate(563.8299942016602 49.5) rotate(0 61.670005798339844 12)"><text x="61.670005798339844" y="0" font-family="Virgil, Segoe UI Emoji" font-size="20px" fill="#000000" text-anchor="middle" style="white-space: pre;" direction="ltr" dominant-baseline="text-before-edge">results page</text></g><g stroke-linecap="round" transform="translate(227 177) rotate(0 205.5 205)"><path d="M32 0 M32 0 C160.4 -0.11, 290.29 -0.96, 379 0 M32 0 C148.6 -2.23, 265.25 -2.73, 379 0 M379 0 C400.07 0.05, 409.1 11.67, 411 32 M379 0 C402.51 1, 413.16 11.87, 411 32 M411 32 C408.94 116.69, 409.9 201.29, 411 378 M411 32 C412.05 109.8, 411.11 188.75, 411 378 M411 378 C411.06 401.28, 401.58 410.43, 379 410 M411 378 C412.01 398.98, 401.19 411.74, 379 410 M379 410 C274.5 412.02, 173.43 411.58, 32 410 M379 410 C255.24 410.72, 131.2 410.84, 32 410 M32 410 C9.34 411.52, 0.39 400.63, 0 378 M32 410 C12.48 410.97, -1.38 397.66, 0 378 M0 378 C1.85 253.44, 2.62 129.74, 0 32 M0 378 C0.8 274.24, 1.3 171.5, 0 32 M0 32 C1.5 9.52, 10.45 1.72, 32 0 M0 32 C-0.2 9.77, 11.47 -1.62, 32 0" stroke="#000000" stroke-width="1" fill="none"></path></g><g transform="translate(257.91998291015625 370) rotate(0 174.58001708984375 12)"><text x="174.58001708984375" y="0" font-family="Virgil, Segoe UI Emoji" font-size="20px" fill="#000000" text-anchor="middle" style="white-space: pre;" direction="ltr" dominant-baseline="text-before-edge">table/list of previous search terms</text></g><g stroke-linecap="round" transform="translate(645 186) rotate(0 335 198.5)"><path d="M32 0 M32 0 C254.38 -1.85, 477.86 -2.28, 638 0 M32 0 C180.21 -2.28, 328.29 -2.19, 638 0 M638 0 C659.04 -0.13, 669.75 12.05, 670 32 M638 0 C659.23 -1.38, 670.6 11.29, 670 32 M670 32 C670.19 147.72, 668.99 264.04, 670 365 M670 32 C671.85 144.36, 672.18 255.31, 670 365 M670 365 C670.25 386.86, 657.44 398.25, 638 397 M670 365 C668.77 386.83, 659.79 396.75, 638 397 M638 397 C456.19 398.55, 274.23 398.03, 32 397 M638 397 C454.11 398.77, 270.31 398.48, 32 397 M32 397 C10.54 397.34, 0.95 385.15, 0 365 M32 397 C10.63 395.95, 0.23 386.19, 0 365 M0 365 C1.04 239.71, 1.47 117.08, 0 32 M0 365 C0.97 271.01, 0.52 177.45, 0 32 M0 32 C1.85 10.52, 9.29 1.22, 32 0 M0 32 C-0.98 12.65, 11.34 0.98, 32 0" stroke="#000000" stroke-width="1" fill="none"></path></g><g transform="translate(815.7499847412109 372.5) rotate(0 164.25001525878906 12)"><text x="164.25001525878906" y="0" font-family="Virgil, Segoe UI Emoji" font-size="20px" fill="#000000" text-anchor="middle" style="white-space: pre;" direction="ltr" dominant-baseline="text-before-edge">table/list of results from search</text></g><g stroke-linecap="round" transform="translate(370 617) rotate(0 256 29)"><path d="M14.5 0 M14.5 0 C145.01 0.9, 277.33 0.6, 497.5 0 M14.5 0 C163.83 0.83, 312.88 1.25, 497.5 0 M497.5 0 C507.54 -1.49, 513.78 4.81, 512 14.5 M497.5 0 C509.06 1.37, 513.43 4.81, 512 14.5 M512 14.5 C513.53 21.98, 512.57 27.31, 512 43.5 M512 14.5 C511.62 25.09, 511.08 36.89, 512 43.5 M512 43.5 C511.15 52.12, 506.26 59.45, 497.5 58 M512 43.5 C511.61 54.4, 508.59 57.04, 497.5 58 M497.5 58 C322.21 59.02, 146.31 59.17, 14.5 58 M497.5 58 C373.52 56.01, 250.73 55.81, 14.5 58 M14.5 58 C5.17 58.23, 1 54.09, 0 43.5 M14.5 58 C4.64 59.86, 0.63 51.95, 0 43.5 M0 43.5 C-1.79 33.83, -1.27 23.65, 0 14.5 M0 43.5 C0.55 34.64, -0.54 24.12, 0 14.5 M0 14.5 C-1.53 5.58, 5.68 -0.38, 14.5 0 M0 14.5 C1.19 4.99, 2.96 2.25, 14.5 0" stroke="#000000" stroke-width="1" fill="none"></path></g><g transform="translate(403.8000030517578 622) rotate(0 222.1999969482422 24)"><text x="222.1999969482422" y="0" font-family="Virgil, Segoe UI Emoji" font-size="20px" fill="#000000" text-anchor="middle" style="white-space: pre;" direction="ltr" dominant-baseline="text-before-edge">option to remove results/searches no longer </text><text x="222.1999969482422" y="24" font-family="Virgil, Segoe UI Emoji" font-size="20px" fill="#000000" text-anchor="middle" style="white-space: pre;" direction="ltr" dominant-baseline="text-before-edge">needed</text></g><g stroke-linecap="round" transform="translate(10 25) rotate(0 72.5 296)"><path d="M32 0 M32 0 C48.87 -0.41, 67.73 0.44, 113 0 M32 0 C48.64 0.23, 65.51 -0.79, 113 0 M113 0 C134.39 0.51, 144.42 9.22, 145 32 M113 0 C135.3 0.61, 146.97 11.07, 145 32 M145 32 C145.63 223.62, 145.27 414.64, 145 560 M145 32 C144.94 143.46, 145.25 255, 145 560 M145 560 C146.54 580.14, 132.45 590.05, 113 592 M145 560 C146.13 579.33, 134.09 592.53, 113 592 M113 592 C81.94 590.74, 52.52 589.69, 32 592 M113 592 C82.39 592.56, 51.38 592.86, 32 592 M32 592 C9.06 590.89, 1.96 582.48, 0 560 M32 592 C12.72 592.9, -0.49 579.22, 0 560 M0 560 C0.13 367.1, 0.98 173.52, 0 32 M0 560 C-1.76 429.13, -1.31 299.13, 0 32 M0 32 C1.56 9.87, 10.13 1.07, 32 0 M0 32 C-1.57 9.34, 11.26 0.58, 32 0" stroke="#000000" stroke-width="1" fill="none"></path></g><g transform="translate(15.979995727539062 261) rotate(0 66.52000427246094 60)"><text x="66.52000427246094" y="0" font-family="Virgil, Segoe UI Emoji" font-size="20px" fill="#000000" text-anchor="middle" style="white-space: pre;" direction="ltr" dominant-baseline="text-before-edge">cool logo or </text><text x="66.52000427246094" y="24" font-family="Virgil, Segoe UI Emoji" font-size="20px" fill="#000000" text-anchor="middle" style="white-space: pre;" direction="ltr" dominant-baseline="text-before-edge">something </text><text x="66.52000427246094" y="48" font-family="Virgil, Segoe UI Emoji" font-size="20px" fill="#000000" text-anchor="middle" style="white-space: pre;" direction="ltr" dominant-baseline="text-before-edge">that makes </text><text x="66.52000427246094" y="72" font-family="Virgil, Segoe UI Emoji" font-size="20px" fill="#000000" text-anchor="middle" style="white-space: pre;" direction="ltr" dominant-baseline="text-before-edge">page not look</text><text x="66.52000427246094" y="96" font-family="Virgil, Segoe UI Emoji" font-size="20px" fill="#000000" text-anchor="middle" style="white-space: pre;" direction="ltr" dominant-baseline="text-before-edge">super old</text></g></svg>