<svg version="1.1" xmlns="http://www.w3.org/2000/svg" viewBox="0 0 1355 622" width="4065" height="1866">
  <!-- svg-source:excalidraw -->
  
  <defs>
    <style class="style-fonts">
      @font-face {
        font-family: "Virgil";
        src: url("https://excalidraw.com/Virgil.woff2");
      }
      @font-face {
        font-family: "Cascadia";
        src: url("https://excalidraw.com/Cascadia.woff2");
      }
    </style>
  </defs>
  <rect x="0" y="0" width="1355" height="622" fill="#ffffff"></rect><g stroke-linecap="round" transform="translate(551 52) rotate(0 116.5 31)"><path d="M15.5 0 M15.5 0 C93.61 -2.18, 173.24 -1.99, 217.5 0 M15.5 0 C67.55 -0.42, 118.3 -0.54, 217.5 0 M217.5 0 C229.14 0.62, 233.15 6.42, 233 15.5 M217.5 0 C227.53 0.27, 234.5 5.74, 233 15.5 M233 15.5 C232.19 25.25, 233.58 36.68, 233 46.5 M233 15.5 C233.04 26.97, 233.68 40.6, 233 46.5 M233 46.5 C233.85 57.18, 228.13 60.99, 217.5 62 M233 46.5 C234.13 54.95, 226.91 64, 217.5 62 M217.5 62 C151.23 63.73, 83.57 63.6, 15.5 62 M217.5 62 C155.19 60.78, 93.25 61.73, 15.5 62 M15.5 62 C3.78 60.58, -1.15 57.33, 0 46.5 M15.5 62 C6.16 60.43, -0.35 57.85, 0 46.5 M0 46.5 C-0.9 37.58, -0.31 32.25, 0 15.5 M0 46.5 C0.99 40.66, 0.34 33.17, 0 15.5 M0 15.5 C0 5.06, 4.75 0.39, 15.5 0 M0 15.5 C-1.49 5.71, 3.97 1, 15.5 0" stroke="#000000" stroke-width="1" fill="none"></path></g><g transform="translate(606.2599945068359 71) rotate(0 61.24000549316406 12)"><text x="61.24000549316406" y="0" font-family="Virgil, Segoe UI Emoji" font-size="20px" fill="#000000" text-anchor="middle" style="white-space: pre;" direction="ltr" dominant-baseline="text-before-edge">Search Page</text></g><g stroke-linecap="round" transform="translate(324 202) rotate(0 126.5 32)"><path d="M16 0 M16 0 C94.02 2.74, 169.43 1.55, 237 0 M16 0 C84.83 -1.28, 155.84 -0.7, 237 0 M237 0 C248.87 1.72, 252.87 5.53, 253 16 M237 0 C245.59 0.06, 253.17 7.27, 253 16 M253 16 C252.82 25.18, 251.54 32.3, 253 48 M253 16 C252.4 23.61, 253.52 31.02, 253 48 M253 48 C253.66 59.34, 246.87 62.8, 237 64 M253 48 C252.77 60.04, 245.4 63.16, 237 64 M237 64 C170.51 63.33, 103.22 64.69, 16 64 M237 64 C175.53 62.31, 114.03 63.51, 16 64 M16 64 C5.95 62.03, -0.7 56.8, 0 48 M16 64 C4.53 65.6, 0.08 56.38, 0 48 M0 48 C0.85 38.3, 1.09 26.25, 0 16 M0 48 C0.53 41.36, 0.34 34.12, 0 16 M0 16 C0.98 3.91, 4.69 1.31, 16 0 M0 16 C2.24 4.61, 5.67 1.67, 16 0" stroke="#000000" stroke-width="1" fill="none"></path></g><g transform="translate(386.63999938964844 222) rotate(0 63.86000061035156 12)"><text x="63.86000061035156" y="0" font-family="Virgil, Segoe UI Emoji" font-size="20px" fill="#000000" text-anchor="middle" style="white-space: pre;" direction="ltr" dominant-baseline="text-before-edge">Search Input</text></g><g stroke-linecap="round" transform="translate(247 297) rotate(0 224.5 155.5)"><path d="M32 0 M32 0 C133.86 -1.73, 233.76 -2, 417 0 M32 0 C145.1 -0.3, 258.65 -0.18, 417 0 M417 0 C440.07 0.62, 447.03 9.97, 449 32 M417 0 C436.18 -0.8, 450.6 10.74, 449 32 M449 32 C449.71 82.04, 449.72 131.75, 449 279 M449 32 C447.31 88.88, 447.75 145.01, 449 279 M449 279 C449.53 301.32, 436.91 310.36, 417 311 M449 279 C450.51 302.57, 437.61 311.33, 417 311 M417 311 C274.04 311.95, 129.75 310.41, 32 311 M417 311 C315.52 308.38, 214.94 308.37, 32 311 M32 311 C10.42 312.09, 1.55 300.6, 0 279 M32 311 C10.28 312.04, -0.26 299.07, 0 279 M0 279 C1.74 193.61, 2.36 110.19, 0 32 M0 279 C0.54 181.61, 2.16 84.69, 0 32 M0 32 C-0.26 11.14, 10.53 1.34, 32 0 M0 32 C-0.06 8.4, 11.18 -1.09, 32 0" stroke="#000000" stroke-width="1" fill="none"></path></g><g transform="translate(307.3699951171875 440.5) rotate(0 164.1300048828125 12)"><text x="164.1300048828125" y="0" font-family="Virgil, Segoe UI Emoji" font-size="20px" fill="#000000" text-anchor="middle" style="white-space: pre;" direction="ltr" dominant-baseline="text-before-edge">info about what can be searched</text></g><g stroke-linecap="round" transform="translate(737 279) rotate(0 304 163.5)"><path d="M32 0 M32 0 C166.69 -0.8, 299.92 -1.06, 576 0 M32 0 C155.57 1.99, 279.22 2.16, 576 0 M576 0 C597.28 -1.97, 608.45 9.72, 608 32 M576 0 C595.44 -1.76, 609.16 8.51, 608 32 M608 32 C608.52 106.74, 611.17 184.91, 608 295 M608 32 C608.72 104.09, 608.46 176.93, 608 295 M608 295 C607.62 316.93, 597.03 326.56, 576 327 M608 295 C606.14 318.18, 597.37 325.77, 576 327 M576 327 C404.47 326.4, 232.62 327.06, 32 327 M576 327 C447.32 327.7, 318.84 327.95, 32 327 M32 327 C8.76 325.06, -0.5 316, 0 295 M32 327 C9.21 327.18, 1.05 314.43, 0 295 M0 295 C-1.35 194.37, -2.19 91.7, 0 32 M0 295 C-1.66 216.65, -0.6 137.87, 0 32 M0 32 C-0.04 9.49, 11.47 -0.2, 32 0 M0 32 C2.23 12.21, 11.84 1.28, 32 0" stroke="#000000" stroke-width="1" fill="none"></path></g><g transform="translate(908.8899993896484 430.5) rotate(0 132.11000061035156 12)"><text x="132.11000061035156" y="0" font-family="Virgil, Segoe UI Emoji" font-size="20px" fill="#000000" text-anchor="middle" style="white-space: pre;" direction="ltr" dominant-baseline="text-before-edge">current result from search</text></g><g stroke-linecap="round" transform="translate(746 179) rotate(0 265 40.5)"><path d="M20.25 0 M20.25 0 C138.02 1.11, 254.26 0.85, 509.75 0 M20.25 0 C203.18 2.41, 385.67 2.12, 509.75 0 M509.75 0 C524.62 -1.47, 528.09 6.9, 530 20.25 M509.75 0 C522.63 -0.64, 529.65 5.04, 530 20.25 M530 20.25 C528.51 33.51, 529.8 47.73, 530 60.75 M530 20.25 C529.04 29.12, 528.8 38.84, 530 60.75 M530 60.75 C528.77 73.26, 523.24 82.32, 509.75 81 M530 60.75 C531.17 72.43, 521.35 82.71, 509.75 81 M509.75 81 C374.5 82.57, 240.13 82.15, 20.25 81 M509.75 81 C367.21 79.72, 224.75 79.45, 20.25 81 M20.25 81 C5.97 82.2, 1.02 74.95, 0 60.75 M20.25 81 C8.53 82.69, -0.77 74.29, 0 60.75 M0 60.75 C-2.07 48.74, -1.46 38.73, 0 20.25 M0 60.75 C0.82 48.51, 0.84 37.53, 0 20.25 M0 20.25 C1.09 5.83, 5.89 1.08, 20.25 0 M0 20.25 C-0.16 5.51, 6.2 -1.43, 20.25 0" stroke="#000000" stroke-width="1" fill="none"></path></g><g transform="translate(875.1499786376953 207.5) rotate(0 135.8500213623047 12)"><text x="135.8500213623047" y="0" font-family="Virgil, Segoe UI Emoji" font-size="20px" fill="#000000" text-anchor="middle" style="white-space: pre;" direction="ltr" dominant-baseline="text-before-edge">search options or something</text></g><g stroke-linecap="round" transform="translate(10 10) rotate(0 110.5 301)"><path d="M32 0 M32 0 C80.18 -0.11, 128.21 0.22, 189 0 M32 0 C65.07 -1.16, 99.91 -1.19, 189 0 M189 0 C209.46 -1.15, 219.52 11.97, 221 32 M189 0 C211.62 1.77, 221.92 10.01, 221 32 M221 32 C222.57 206.52, 222.16 382.31, 221 570 M221 32 C222.52 200.77, 222.57 369.01, 221 570 M221 570 C220.56 592.34, 208.88 600.54, 189 602 M221 570 C219.57 591.61, 212 603.44, 189 602 M189 602 C130.75 602.14, 69.88 600.97, 32 602 M189 602 C155.88 603.46, 120.74 602.68, 32 602 M32 602 C10.58 602.7, 0.96 591.14, 0 570 M32 602 C9.96 602.26, 0.06 591.46, 0 570 M0 570 C0.85 453.22, 1.34 336.11, 0 32 M0 570 C0.86 393.56, 1.25 217.1, 0 32 M0 32 C1.15 10.44, 10.45 -0.47, 32 0 M0 32 C0.94 12.68, 11.77 -0.74, 32 0" stroke="#000000" stroke-width="1" fill="none"></path></g><g transform="translate(19.49999237060547 287) rotate(0 101.00000762939453 24)"><text x="101.00000762939453" y="0" font-family="Virgil, Segoe UI Emoji" font-size="20px" fill="#000000" text-anchor="middle" style="white-space: pre;" direction="ltr" dominant-baseline="text-before-edge">more pretty pictures</text><text x="101.00000762939453" y="24" font-family="Virgil, Segoe UI Emoji" font-size="20px" fill="#000000" text-anchor="middle" style="white-space: pre;" direction="ltr" dominant-baseline="text-before-edge">or graphics</text></g></svg>